<svg xmlns="http://www.w3.org/2000/svg" viewBox="0 0 150 129.9" class="header-sidebar-nav-icon">
    <path d="M75,129.9,0,0H150ZM10,5.78,75,118.35,140,5.78Z" class="cls-1"></path>
    
    <polygon points="104.29 10.68 
                   106.93 15.26 
                   109.79 20.22 
                   108.17 23.03 
                   102.36 23.03 
                   96.37 23.03 
                   99.36 28.21 
                   102.27 33.25 
                   100.55 36.22 
                   94.79 36.22 
                   88.8 36.22 
                   91.79 41.41 
                   94.68 46.4 
                   92.89 49.5 
                   87.32 49.5 
                   81.33 49.5 
                   84.33 54.68 
                   87.11 59.51 
                   75.05 80.39 
                   62.98 59.49 
                   65.76 54.68 
                   68.75 49.5 
                   62.77 49.5 
                   57.22 49.5 
                   55.42 46.38 
                   58.29 41.41 
                   61.29 36.22 
                   55.3 36.22 
                   49.55 36.22 
                   47.82 33.23 
                   50.72 28.21 
                   53.72 23.03 
                   47.73 23.03 
                   41.93 23.03 
                   40.3 20.2 
                   43.16 15.26 
                   45.8 10.68 
                   18.36 10.68 
                   75.06 108.93 
                   131.74 10.68 
                   104.29 10.68" 
             class="cls-1">
    </polygon>
</svg>