<svg xmlns="http://www.w3.org/2000/svg" viewBox="0 0 150.87 130.65" class="homewhatisdegenesis-triangle-inner"><polygon points="104.72 10.93 107.36 15.51 110.22 20.47 108.6 23.28 102.79 23.28 96.8 23.28 99.79 28.46 102.7 33.5 100.98 36.47 95.22 36.47 89.23 36.47 92.22 41.66 95.11 46.65 93.32 49.75 87.75 49.75 81.76 49.75 84.76 54.93 87.54 59.76 75.48 80.64 63.41 59.74 66.19 54.93 69.18 49.75 63.2 49.75 57.65 49.75 55.85 46.63 58.72 41.66 61.72 36.47 55.73 36.47 49.98 36.47 48.25 33.48 51.15 28.46 54.15 23.28 48.16 23.28 42.36 23.28 40.73 20.45 43.59 15.51 46.23 10.93 18.79 10.93 75.49 109.18 132.17 10.93 104.72 10.93" class="homewhatisdegenesis-triangle-inner-path" style="stroke-dashoffset: 1040px;"></polygon></svg>