<svg xmlns="http://www.w3.org/2000/svg" viewBox="0 0 793.7 760.3" class="footer-logo-icon"><title>Element 1</title>
<style>
.footer-logo-icon>* {
    fill: #ccaf7d;
}
</style>
 <g id="Ebene_2" data-name="Ebene 2"><g id="Layer_1" data-name="Layer 1"><g id="Layer_2" data-name="Layer 2"><g id="Layer_1-2" data-name="Layer 1-2"><rect x="228.9" y="114.4" width="106.9" height="531.3"></rect> <rect x="343.5" y="114.4" width="106.9" height="531.3"></rect> <rect x="458" y="114.4" width="106.9" height="531.3"></rect> <polygon points="0 0 0 206.6 221.3 428.1 221.3 276.8 106.9 162.5 106.9 151.7 221.3 266.1 221.3 114.3 106.9 0 0 0"></polygon> <polygon points="0 369 114.3 483.2 114.3 494 0 379.7 0 531.5 114.3 645.8 221.3 645.8 221.3 439.1 0 217.6 0 369"></polygon> <polygon points="679.1 221.1 572.5 114.4 572.5 483.3 679.1 589.9 679.1 221.1"></polygon> <polygon points="793.7 221.4 686.8 114.4 686.8 608 572.5 494.2 572.5 645.8 687 760.3 793.7 760.3 793.7 221.4"></polygon></g></g></g></g></svg>