<svg id="contenidor-svg" xmlns="http://www.w3.org/2000/svg" viewBox="0 0 349.96 137.87">
    <polygon class="lletres-svg" points="0 52.6 0 53.83 9.52 53.83 9.52 53.83 28.92 53.83 28.92 128.15 9.46 128.15 9.46 53.9 0 63.35 0 137.6 38.38 137.6 38.38 44.38 0 44.38 0 52.6"></polygon>
    
    <polygon class="lletres-svg" points="170.31 44.38 170.31 137.61 179.77 137.61 179.77 53.83 195.08 53.83 199.24 57.99 199.24 137.61 208.69 137.61 208.69 54.23 198.84 44.38 170.31 44.38"></polygon>
    
    <polygon class="lletres-svg" points="85.02 52.97 85.02 137.6 123.4 137.6 123.4 65.15 113.94 74.61 113.94 128.15 94.47 128.15 94.47 58.28 98.93 53.83 123.68 53.83 123.68 44.38 93.61 44.38 85.02 52.97"></polygon>
    
    <path class="lletres-svg" d="M156.83,128.15H141.56l-4.41-4.41V84.44l29.12-29.12V44.38H127.7v83.67l9.55,9.55h29V65.15l-9.46,9.46ZM137.15,53.83h17.24L137.15,71.06Z"></path>
    
    <path class="lletres-svg" d="M241.8,128.15H226.32l-4.19-4.2V84.44l29.11-29.12V44.38H212.67v83.88L222,137.6h29.25V65.15l-9.46,9.46ZM222.13,53.83h17.23L222.13,71.06Z"></path>
    
    <path class="lletres-svg" d="M71.55,128.15H56.24l-4.37-4.37V84.44L81,55.32V44.38H42.42v83.71l9.51,9.51H81V65.15l-9.46,9.46ZM51.87,53.83H69.1L51.87,71.06Z"></path>
    
    <polygon class="lletres-svg" points="349.96 61.36 349.96 44.38 311.42 44.38 311.42 54.73 340.5 83.1 340.5 128.41 325.51 128.41 320.87 123.77 320.87 74.57 311.42 65.11 311.42 128.08 321.2 137.87 349.96 137.87 349.96 79.11 324.04 53.83 340.51 53.83 340.51 61.36 349.96 61.36"></polygon>
    
    <polygon class="lletres-svg" points="255.29 54.73 284.38 83.1 284.38 128.41 269.41 128.41 264.75 123.75 264.75 74.57 255.29 65.11 255.29 128.06 265.1 137.87 293.84 137.87 293.84 79.11 267.92 53.83 284.38 53.83 284.38 61.36 293.84 61.36 293.84 44.38 255.29 44.38 255.29 54.73"></polygon>
    
    <polygon class="lletres-svg" points="297.9 137.61 307.36 137.61 307.36 44.65 297.9 54.11 297.9 137.61"></polygon>
    
    <polygon class="lai" points="311.13 18.61 319.8 27.27 325.2 27.27 312.71 14.79 306.59 14.79 306.59 23.46 301.72 23.46 301.72 21.28 301.71 21.28 301.71 18.61 303.74 18.61 303.74 14.79 301.71 14.79 301.71 7.61 297.9 11.42 297.9 14.79 293.04 14.79 293.04 14.06 301.71 5.39 301.71 0 289.22 12.48 289.22 18.61 297.9 18.61 297.9 23.46 295.73 23.46 295.73 23.47 293.03 23.47 293.03 21.45 289.21 21.45 289.21 23.47 282.03 23.47 285.84 27.29 289.21 27.29 289.21 32.15 288.48 32.15 279.81 23.48 274.42 23.48 286.9 35.96 293.03 35.96 293.03 27.29 297.9 27.29 297.9 29.47 297.9 29.47 297.9 32.14 295.88 32.14 295.88 35.96 297.9 35.96 297.9 43.14 301.72 39.33 301.72 35.96 306.58 35.96 306.58 36.69 297.91 45.36 297.91 50.75 310.39 38.27 310.39 32.14 301.72 32.14 301.72 27.29 303.89 27.29 303.89 27.28 306.59 27.28 306.59 29.3 310.4 29.3 310.4 27.28 317.59 27.28 313.77 23.47 310.4 23.47 310.4 18.61 311.13 18.61"></polygon>
</svg>